<svg xmlns="http://www.w3.org/2000/svg" width="132" height="132" viewBox="0 0 132 132">
  <g fill="none" fill-rule="evenodd">
    <rect width="132" height="132" rx="2"/>
    <rect width="120" height="120" x="6" y="6" fill="#E0512D" rx="2"/>
    <path fill="#FFFFFF" d="M85.5349345 48C88.7139738 48 91.0840611 50.2482759 91.0840611 53.2551724 91.0840611 56.2896552 88.7139738 58.537931 85.5349345 58.537931 82.3700873 58.537931 80 56.2896552 80 53.2551724 80 50.2482759 82.3700873 48 85.5349345 48zM85.5349345 50.8827586C84.1724891 50.8827586 83.150655 51.8758621 83.150655 53.2551724 83.150655 54.662069 84.1724891 55.6551724 85.5349345 55.6551724 86.9257642 55.6551724 87.9334061 54.662069 87.9334061 53.2551724 87.9334061 51.8758621 86.9257642 50.8827586 85.5349345 50.8827586zM101.4869 48.3448276L88.1746725 67.6551724 84.4563319 67.6551724 97.7827511 48.3448276 101.4869 48.3448276zM100.450873 57.462069C103.629913 57.462069 106 59.7241379 106 62.7310345 106 65.7517241 103.629913 68 100.450873 68 97.2860262 68 94.9159389 65.7517241 94.9159389 62.7310345 94.9159389 59.7517241 97.2860262 57.462069 100.450873 57.462069zM100.450873 60.3448276C99.0742358 60.3448276 98.0665939 61.337931 98.0665939 62.7310345 98.0665939 64.1241379 99.0742358 65.1172414 100.450873 65.1172414 101.841703 65.1172414 102.849345 64.1241379 102.849345 62.7310345 102.849345 61.337931 101.841703 60.3448276 100.450873 60.3448276zM85.437986 73C88.0358314 73 89.875972 74.9090909 89.875972 77.5 89.875972 80.0909091 88.0358314 82 85.437986 82 82.8401405 82 81 80.0909091 81 77.5 81 74.9090909 82.8401405 73 85.437986 73zM85.437986 74.9834711C84.0669009 74.9834711 83.0927088 76.0123967 83.0927088 77.5 83.0927088 78.9876033 84.0669009 80.0165289 85.437986 80.0165289 86.8090711 80.0165289 87.7832631 78.9876033 87.7832631 77.5 87.7832631 76.0123967 86.8090711 74.9834711 85.437986 74.9834711zM97.128289 76.6508264L97.128289 78.5227273 93.0631419 78.5227273 93.0631419 81.838843 91.0546225 81.838843 91.0546225 73.161157 97.4169385 73.161157 97.4169385 75.0268595 93.0631419 75.0268595 93.0631419 76.6508264 97.128289 76.6508264zM104.711351 76.6508264L104.711351 78.5227273 100.646203 78.5227273 100.646203 81.838843 98.637684 81.838843 98.637684 73.161157 105 73.161157 105 75.0268595 100.646203 75.0268595 100.646203 76.6508264 104.711351 76.6508264zM41.5502655 48.0724138L41.5502655 82.3965517 35.0567586 82.3965517 35.0567586 57.2448276 27 60.5275862 27 53.962069 41.5502655 48.0724138zM62.4737845 48C70.5064931 48 77 54.5655172 77 65.5 77 76.4344828 70.5064931 83 62.4737845 83 54.417026 83 47.9716191 76.4344828 47.9716191 65.5 47.9716191 54.5655172 54.417026 48 62.4737845 48zM62.4737845 54.2517241C58.1688299 54.2517241 54.7296763 58.1137931 54.7296763 65.5 54.7296763 72.8862069 58.1688299 76.7482759 62.4737845 76.7482759 66.8027891 76.7482759 70.2178928 72.8862069 70.2178928 65.5 70.2178928 58.1137931 66.8027891 54.2517241 62.4737845 54.2517241z"/>
  </g>
</svg>
